<svg xmlns="http://www.w3.org/2000/svg" width="371.123" height="397.909" viewBox="0 0 371.123 397.909">
  <g id="グループ_43" data-name="グループ 43" transform="translate(-462.599 -1344.189)">
    <circle id="楕円形_7" data-name="楕円形 7" cx="6.274" cy="6.274" r="6.274" transform="translate(478.962 1685.938)" fill="#231815"/>
    <path id="パス_23" data-name="パス 23" d="M509.048,1399.031H553.5a52.441,52.441,0,0,1,22.149,4.751,60.363,60.363,0,0,1,18.09,12.648,58.767,58.767,0,0,1,12.185,18.392A56.694,56.694,0,0,1,606,1478.66a58.516,58.516,0,0,1-12.108,18.47,59.619,59.619,0,0,1-18.089,12.724,52.761,52.761,0,0,1-22.3,4.751H509.048Zm30.045,90.129h6.895a37.3,37.3,0,0,0,13.948-2.452,29.778,29.778,0,0,0,10.345-6.745,28.836,28.836,0,0,0,6.438-10.193,36.453,36.453,0,0,0,2.226-12.951,35.554,35.554,0,0,0-2.3-12.876,29.578,29.578,0,0,0-6.515-10.27,29.883,29.883,0,0,0-10.345-6.745,36.944,36.944,0,0,0-13.8-2.453h-6.895Z" transform="translate(12.385 14.735)" fill="#231815"/>
    <path id="パス_24" data-name="パス 24" d="M598.661,1414.664a15.053,15.053,0,0,1,1.23-6.054,15.883,15.883,0,0,1,8.353-8.354,15.574,15.574,0,0,1,12.109,0,15.927,15.927,0,0,1,8.354,8.354,15.583,15.583,0,0,1,0,12.112,15.932,15.932,0,0,1-8.354,8.353,15.575,15.575,0,0,1-12.109,0,15.889,15.889,0,0,1-8.353-8.353A15.063,15.063,0,0,1,598.661,1414.664Zm29.583,21.309V1514.6H600.5v-78.631Z" transform="translate(37.467 14.735)" fill="#231815"/>
    <path id="パス_25" data-name="パス 25" d="M697.281,1428.43h27.9v78.631h-27.9v-8.737q-8.891,11.189-24.064,11.189a39.1,39.1,0,0,1-15.787-3.141,38.068,38.068,0,0,1-12.571-8.816,40.586,40.586,0,0,1-8.353-13.333,45.6,45.6,0,0,1-2.988-16.71,44.363,44.363,0,0,1,2.912-16.016,41.149,41.149,0,0,1,8.125-13.26,38.293,38.293,0,0,1,12.414-8.966,37.871,37.871,0,0,1,15.945-3.3q14.71,0,24.369,10.27Zm-34.949,39.084a18.353,18.353,0,0,0,5.137,12.875,16.772,16.772,0,0,0,5.671,3.835,18.274,18.274,0,0,0,7.129,1.38,17.9,17.9,0,0,0,6.971-1.38,16.829,16.829,0,0,0,5.67-3.835,19.835,19.835,0,0,0,3.832-5.67,16.54,16.54,0,0,0,1.458-6.9,17.061,17.061,0,0,0-1.458-6.973,19.566,19.566,0,0,0-3.832-5.748,16.859,16.859,0,0,0-5.67-3.833,17.868,17.868,0,0,0-6.971-1.38,18.243,18.243,0,0,0-7.129,1.38,16.8,16.8,0,0,0-5.671,3.833,18.844,18.844,0,0,0-3.755,5.594A16.792,16.792,0,0,0,662.333,1467.514Z" transform="translate(47.223 22.277)" fill="#231815"/>
    <path id="パス_26" data-name="パス 26" d="M539.094,1501.97V1592.1h36.02v25.444H509.048V1501.97Z" transform="translate(12.385 43.547)" fill="#231815"/>
    <path id="パス_27" data-name="パス 27" d="M545.929,1543.229a40.055,40.055,0,0,1,3.691-17.1,41.985,41.985,0,0,1,10.274-13.807,48.83,48.83,0,0,1,15.657-9.232,56.408,56.408,0,0,1,19.828-3.374,57.321,57.321,0,0,1,19.665,3.292,48.783,48.783,0,0,1,15.738,9.151,41.176,41.176,0,0,1,10.354,13.969,42.724,42.724,0,0,1,3.691,17.9,41.908,41.908,0,0,1-3.772,17.9A42.554,42.554,0,0,1,630.7,1575.9a46.384,46.384,0,0,1-15.818,9.071,60.465,60.465,0,0,1-19.988,3.211,57.84,57.84,0,0,1-19.585-3.211,45.165,45.165,0,0,1-15.5-9.151,42.432,42.432,0,0,1-10.193-14.208A44.562,44.562,0,0,1,545.929,1543.229Zm30.662.32a18.684,18.684,0,0,0,1.524,7.627,20.418,20.418,0,0,0,4.014,6.021,17.713,17.713,0,0,0,5.942,4.014,19.193,19.193,0,0,0,14.613,0,17.733,17.733,0,0,0,5.937-4.014,20.313,20.313,0,0,0,4.014-6.021,18.2,18.2,0,0,0,1.524-7.467,17.83,17.83,0,0,0-1.524-7.3,20.351,20.351,0,0,0-4.014-6.02,17.716,17.716,0,0,0-5.937-4.014,19.179,19.179,0,0,0-14.613,0,17.7,17.7,0,0,0-5.942,4.014,20.76,20.76,0,0,0-4.014,5.94A17.346,17.346,0,0,0,576.591,1543.548Z" transform="translate(22.708 42.916)" fill="#231815"/>
    <g id="グループ_42" data-name="グループ 42" transform="translate(682.389 1543.392)">
      <path id="パス_28" data-name="パス 28" d="M724.817,1502.433v72.432a81.479,81.479,0,0,1-.758,11.669,50.652,50.652,0,0,1-2.126,9.092,28.573,28.573,0,0,1-5.68,9.318,38.24,38.24,0,0,1-9.32,7.5,49.345,49.345,0,0,1-12.347,5,62.2,62.2,0,0,1-31.6-.453,45.407,45.407,0,0,1-13.256-6.289,36.632,36.632,0,0,1-9.321-9.4,31.111,31.111,0,0,1-4.847-11.743h30.913q2.874,7.729,13.028,7.729,8.641,0,13.262-4.849t4.622-13.488v-7.425a45.975,45.975,0,0,1-5.833,4.773,33.236,33.236,0,0,1-5.685,3.106,27.1,27.1,0,0,1-6.062,1.742,42.554,42.554,0,0,1-6.972.531,39.705,39.705,0,0,1-15.3-2.877,35.338,35.338,0,0,1-19.928-20.382,43.621,43.621,0,0,1-2.8-15.987,44.578,44.578,0,0,1,3.031-16.593,42.55,42.55,0,0,1,8.259-13.335,37.667,37.667,0,0,1,28.105-12.2,30.15,30.15,0,0,1,23.188,10.306v-8.182Zm-61.525,38.489a18.132,18.132,0,0,0,5.075,12.729,16.634,16.634,0,0,0,5.608,3.789,18.025,18.025,0,0,0,7.043,1.364,17.662,17.662,0,0,0,6.895-1.364,16.639,16.639,0,0,0,5.61-3.789,19.366,19.366,0,0,0,3.789-5.683,17.422,17.422,0,0,0,0-13.865,18.883,18.883,0,0,0-3.865-5.606,17.51,17.51,0,0,0-5.68-3.789,17.318,17.318,0,0,0-6.747-1.366,16.357,16.357,0,0,0-6.819,1.442,19.6,19.6,0,0,0-5.6,3.786,17.852,17.852,0,0,0-3.865,5.532A16.3,16.3,0,0,0,663.293,1540.922Z" transform="translate(-634.805 -1500.31)" fill="#231815"/>
    </g>
    <path id="パス_29" data-name="パス 29" d="M464.8,1346.387l36.221,36.221H795.226" transform="translate(0)" fill="none" stroke="#231815" stroke-miterlimit="10" stroke-width="6.217"/>
    <circle id="楕円形_8" data-name="楕円形 8" cx="6.274" cy="6.274" r="6.274" transform="translate(802.252 1376.459)" fill="#231815"/>
    <path id="パス_30" data-name="パス 30" d="M823.586,1652.9l-36.221-36.221H493.158" transform="translate(7.938 75.654)" fill="none" stroke="#231815" stroke-miterlimit="10" stroke-width="6.217"/>
    <text id="きく_はなす_すすむ" data-name="きく、はなす、すすむ" transform="translate(632.052 1736.098)" fill="#231815" font-size="24" font-family="YuGothicUI-Regular, Yu Gothic UI"><tspan x="-91.799" y="0">きく、はなす、すすむ</tspan></text>
  </g>
</svg>
